# xmcd
#
# Track frame offsets:
#	150
#	14878
#	34259
#	46651
#	62396
#	78726
#	93517
#	108245
#	129409
#	144622
#	162300
#	181074
#	196907
#	217015
#	233791
#	249747
#	267465
#	285665
#	301502
#	319075
#
# Disc length: 4502 seconds
#
# Revision: 1
# Processed by: cddbd v1.5.2PL0 Copyright (c) Steve Scherf et al.
# Submitted via: audiograbber 1.83.01
#
DISCID=1a119414
DTITLE=Various Artist - Nu Rock Traxx 064
DYEAR=2004
DGENRE=Rock
TTITLE0=Linkin Park - Breaking The Habit
TTITLE1=Metallica - Some Kind Of Monster
TTITLE2=Beastie Boys - Triple Trouble
TTITLE3=Yellowcard - Only Once
TTITLE4=Godsmack - Touche
TTITLE5=Jet - Roll Over Dj
TTITLE6=Hoobastank - Same Direction
TTITLE7=Mitch Allan - In Your Eyes
TTITLE8=G. Love - Astronaut
TTITLE9=Keane - Somewhere Only We Know
TTITLE10=Saliva - Survival Of The Sickest
TTITLE11=Scissor Sisters - Take Your Mama
TTITLE12=Alter Bridge - Open Your Eyes
TTITLE13=Walkman - The Rat
TTITLE14=Hives - Walk Idiot Walk
TTITLE15=Strata - The Panic
TTITLE16=Yeah, Yeah, Yeahs - Y Control
TTITLE17=Chronic Future - Time And Time Again
TTITLE18=Kid Rock - I Am
TTITLE19=Flaw - Recognize
EXTD=
EXTT0=
EXTT1=
EXTT2=
EXTT3=
EXTT4=
EXTT5=
EXTT6=
EXTT7=
EXTT8=
EXTT9=
EXTT10=
EXTT11=
EXTT12=
EXTT13=
EXTT14=
EXTT15=
EXTT16=
EXTT17=
EXTT18=
EXTT19=
PLAYORDER=
